# xmcd
#
# Track frame offsets: 
#        150
#        12665
#        25613
#        36714
#        50455
#        63798
#        76078
#        86879
#        101690
#        111709
#        124592
#        136900
#        150985
#        163033
#        175161
#        186714
#        199862
#        212550
#        224272
#        236374
#        249153
#        262951
#        274374
#        287670
#        299425
#        309424
#
# Disc length: 4266 seconds
#
# Revision: 0
# Processed by: cddbd v1.5.2PL0 Copyright (c) Steve Scherf et al.
# Submitted via: ExactAudioCopy v1.0b1
#
DISCID=7e10a81a
DTITLE=Various Artist - History Of Rhythm And Blues 1942-52 [CD3]
DYEAR=2018
DGENRE=R&B
TTITLE0=Wynonie Harris - Good Rockin' Tonight (1948)
TTITLE1=Wild Bill Moore - Rock'n'Roll (1949)
TTITLE2=Roy Brown - Butcher Pete (1949)
TTITLE3=Louis Jordan - Saturday Night Fish Fry (1949)
TTITLE4=Hal Singer - Rock Around The Clock (1950)
TTITLE5=Goree Carter and His Hep Cats - Rock A While (1949)
TTITLE6=Ralph Willis and Brownie McGhee - I'm Gonna Rock (1949)
TTITLE7=Stick McGhee - Drinkin' Wine Spo-Dee-O-Dee (1949)
TTITLE8=Lost John Hunter and His Blind Bats - Cool Down Mama (1950)
TTITLE9=Jackie Brenston - Rocket 88 (1951)
TTITLE10=Howlin' Wolf - How Many More Years (1951)
TTITLE11=Roscoe Gordon - Booted (1951)
TTITLE12=Tiny Bradshaw - Well Well Well (1950)
TTITLE13=Wynonie Harris - Good Morning Judge (1950)
TTITLE14=Arthur Crudup - My Baby Left Me (1951)
TTITLE15=Larks - Eyesight To The Blind (1951)
TTITLE16=Elmore James - Dust My Broom (1952)
TTITLE17=Jimmy Witherspoon - Two Little Girls (1952)
TTITLE18=Amos Milburn - Let's Rock Awhile (1951)
TTITLE19=Little Willie Littlefield - Rockin' Chair Mama (1949)
TTITLE20=Joe Liggins - Pink Champaigne (1950)
TTITLE21=Dominoes - Sixty Minute Man (1951)
TTITLE22=Fluffy Hunter and Jessie Powell - Walk Right In (1952)
TTITLE23=Swallows - It Ain't The Meat It's The Motion (1952)
TTITLE24=Bull Moose Jackson - Big Ten-Inch Record (1952)
TTITLE25=Treniers - Go Go Go (1951)
EXTD=
EXTT0=
EXTT1=
EXTT2=
EXTT3=
EXTT4=
EXTT5=
EXTT6=
EXTT7=
EXTT8=
EXTT9=
EXTT10=
EXTT11=
EXTT12=
EXTT13=
EXTT14=
EXTT15=
EXTT16=
EXTT17=
EXTT18=
EXTT19=
EXTT20=
EXTT21=
EXTT22=
EXTT23=
EXTT24=
EXTT25=
PLAYORDER=
